<svg xmlns="http://www.w3.org/2000/svg" width="32" height="32" viewBox="0 0 32 32">
  <path id="BOOK_2" data-name="BOOK 2" d="M422.065,1421.889l-14.471,5.988a1.5,1.5,0,0,1-1.187,0l-14.471-5.988A1.5,1.5,0,0,1,391,1420.5v-23a1.5,1.5,0,0,1,2.073-1.386h0l.013.005L407,1401.876l13.911-5.756.013-.005h0A1.5,1.5,0,0,1,423,1397.5v23A1.5,1.5,0,0,1,422.065,1421.889ZM405.5,1404.5l-11.5-4.759V1419.5l11.5,4.759Zm14.5-4.759-11.5,4.759v19.753L420,1419.5Zm-9.121,6.89,5.5-2.5h0a1.5,1.5,0,0,1,1.241,2.731h0l-5.5,2.5h0a1.5,1.5,0,1,1-1.241-2.731Zm0,5.5h0l5.5-2.5h0a1.5,1.5,0,1,1,1.241,2.731l-5.5,2.5h0a1.5,1.5,0,1,1-1.241-2.73Zm0,5.5h0l5.5-2.5h0a1.5,1.5,0,1,1,1.241,2.731h0l-5.5,2.5h0a1.5,1.5,0,1,1-1.241-2.731ZM397,1404a1.491,1.491,0,0,1,.621.135h0l5.5,2.5h0a1.5,1.5,0,1,1-1.241,2.731h0l-5.5-2.5h0A1.5,1.5,0,0,1,397,1404Zm0,5.5a1.5,1.5,0,0,1,.621.134h0l5.5,2.5h0a1.5,1.5,0,1,1-1.241,2.73h0l-5.5-2.5h0A1.5,1.5,0,0,1,397,1409.5Zm0,5.5a1.489,1.489,0,0,1,.621.135h0l5.5,2.5h0a1.5,1.5,0,1,1-1.241,2.731h0l-5.5-2.5h0A1.5,1.5,0,0,1,397,1415Z" transform="translate(-391 -1396)" fill="#95e1d3"/>
</svg>
