<svg xmlns="http://www.w3.org/2000/svg" width="17.6" height="14.025" viewBox="0 0 17.6 14.025">
  <path id="SHOPPING_CART" data-name="SHOPPING CART" d="M1501.726,40.663h0l-2.475,5.5h0a.824.824,0,0,1-.7.485h0l-7.128.475.412,1.177h7.761a1.65,1.65,0,1,1-1.65,1.65h-7.7a1.65,1.65,0,1,1-1.65-1.65h1.491l-3.176-9.075h-1.89a.825.825,0,1,1,0-1.65h2.475a.822.822,0,0,1,.776.554h0l.48,1.373h12.216a.822.822,0,0,1,.751,1.163Zm-12.389.487,1.525,4.357,7.089-.473,1.748-3.884Z" transform="translate(-1484.2 -37.575)" fill="#fff"/>
</svg>
