<svg xmlns="http://www.w3.org/2000/svg" width="31" height="28" viewBox="0 0 31 28">
  <path id="COMPUTER_OK" data-name="COMPUTER / OK" d="M1220,1250h-9.5v2.5l2,2v.5h-13v-.5l2-2V1250H1192a1.5,1.5,0,0,1-1.5-1.5v-20a1.5,1.5,0,0,1,1.5-1.5h28a1.5,1.5,0,0,1,1.5,1.5v20A1.5,1.5,0,0,1,1220,1250Zm-.5-21h-27v17h27Zm-16.5,7a1.5,1.5,0,0,1,1.061.439h0l.939.94,2.939-2.939h0a1.5,1.5,0,1,1,2.121,2.121h0l-4,4h0a1.5,1.5,0,0,1-2.121,0h0l-2-2h0A1.5,1.5,0,0,1,1203,1236Z" transform="translate(-1190.5 -1227)" fill="#95e1d3"/>
</svg>
