<svg xmlns="http://www.w3.org/2000/svg" width="32" height="30.5" viewBox="0 0 32 30.5">
  <path id="HOME" d="M822,1412.5a1.5,1.5,0,0,1-2.52,1.094l0,0-13.438-13.438h0l-.038-.036h0l-13.446,13.447h0a1.5,1.5,0,1,1-2.092-2.149l14.458-14.458A1.5,1.5,0,0,1,806,1396.5h0c.027,0,.053,0,.079,0h.013l.068.006h0a1.5,1.5,0,0,1,.933.468h0l5.9,5.9V1401.5a1.5,1.5,0,1,1,3,0v4.378l5.6,5.6,0,0A1.491,1.491,0,0,1,822,1412.5Zm-3,2.5v10.5a1.5,1.5,0,0,1-1.5,1.5h-3v-12h-6v12h-14a1.5,1.5,0,0,1-1.5-1.5V1415l13-13Zm-15.5,0h-6v6h6Z" transform="translate(-790 -1396.5)" fill="#95e1d3"/>
</svg>
