<svg xmlns="http://www.w3.org/2000/svg" width="19.594" height="25.657" viewBox="0 0 19.594 25.657">
  <path id="pinterest" d="M566.051,2076.854c-.209.833-.42,1.706-.638,2.561a19.556,19.556,0,0,1-.718,2.469,12.651,12.651,0,0,1-2.044,3.521c-.575.667-.452.4-.625.365-.132-.028-.144-.157-.169-.345a19.3,19.3,0,0,1,.008-3.34,18.045,18.045,0,0,1,.588-3.471c.484-2.063.946-4.087,1.435-6.164a1.371,1.371,0,0,0,.09-.445,6.416,6.416,0,0,1-.429-1.7,5.409,5.409,0,0,1,.139-1.943,3.208,3.208,0,0,1,1.894-2.338,2.174,2.174,0,0,1,1.734.132,1.884,1.884,0,0,1,.867,1.245,4.49,4.49,0,0,1-.08,1.892c-.267,1.218-.618,2.133-.937,3.309a3.64,3.64,0,0,0-.189,1.812,2.106,2.106,0,0,0,.848,1.275,2.466,2.466,0,0,0,1.625.455,3.552,3.552,0,0,0,2.652-1.568,9.272,9.272,0,0,0,1.674-4.686,11.512,11.512,0,0,0,.07-2.014,5.478,5.478,0,0,0-1.126-3.117,5.279,5.279,0,0,0-2.512-1.711,8.332,8.332,0,0,0-3.748-.233,6.636,6.636,0,0,0-4.914,3.533,7.078,7.078,0,0,0-.837,3.41,4.426,4.426,0,0,0,.678,2.5c.133.2.328.367.458.6.185.326-.029.811-.12,1.164-.11.425-.121,1.012-.618,1.022a1.506,1.506,0,0,1-.638-.243,5.117,5.117,0,0,1-2.422-3.734,8.936,8.936,0,0,1,0-3.238,9.214,9.214,0,0,1,4.4-6.144,10.45,10.45,0,0,1,3.907-1.346c.508-.074,1.034-.1,1.6-.132a9.635,9.635,0,0,1,4.326.809,8.852,8.852,0,0,1,2.98,2.146,8.122,8.122,0,0,1,1.834,3.309,7.977,7.977,0,0,1,.4,2.287,13.726,13.726,0,0,1-.308,2.368,9.329,9.329,0,0,1-3.838,6.458,6.636,6.636,0,0,1-1.754.81,6.414,6.414,0,0,1-2.243.283,4.6,4.6,0,0,1-1.984-.577A3.288,3.288,0,0,1,566.051,2076.854Z" transform="translate(-557.899 -2060.195)" fill="#f38181"/>
</svg>
