<svg xmlns="http://www.w3.org/2000/svg" width="25.6" height="20.778" viewBox="0 0 25.6 20.778">
  <path id="twitter" d="M516.513,2062.6a5.4,5.4,0,0,1,4.151,1.647,8.5,8.5,0,0,0,2.691-.907l.653-.357a5.253,5.253,0,0,1-1.7,2.465,2.519,2.519,0,0,1-.577.409v.012a9.831,9.831,0,0,0,2.973-.8v.013a8.5,8.5,0,0,1-1.781,2.044l-.82.651a15.049,15.049,0,0,1-.243,3.373c-1.312,5.895-4.787,9.9-10.289,11.612a15.728,15.728,0,0,1-7.431.306,19.191,19.191,0,0,1-3.088-1.009,12.268,12.268,0,0,1-1.486-.767l-.461-.281a8.575,8.575,0,0,0,1.678.064c.516-.083,1.023-.062,1.5-.166a10.774,10.774,0,0,0,3.152-1.137,5.869,5.869,0,0,0,1.422-.932,4.474,4.474,0,0,1-1.563-.281,5.275,5.275,0,0,1-3.331-3.36c.515.057,2,.191,2.345-.1a3.842,3.842,0,0,1-1.717-.69,5.052,5.052,0,0,1-2.473-4.5l.538.255a5.776,5.776,0,0,0,1.1.307,1.576,1.576,0,0,0,.718.063h-.026c-.265-.307-.7-.513-.961-.843a5.365,5.365,0,0,1-1.179-4.765,6.1,6.1,0,0,1,.564-1.367l.026.012a3.2,3.2,0,0,0,.474.55,9.612,9.612,0,0,0,1.563,1.494,15.461,15.461,0,0,0,6.419,3.1,10.026,10.026,0,0,0,2.358.307,4.881,4.881,0,0,1,.026-2.466,5.179,5.179,0,0,1,2.973-3.525,6.323,6.323,0,0,1,1.166-.358Z" transform="translate(-499.1 -2062.6)" fill="#f38181"/>
</svg>
